<svg width="104" height="66" viewBox="0 0 104 66" fill="none" xmlns="http://www.w3.org/2000/svg">
<path d="M1.87997 27V1.87199H18.548V6.29998H7.27997V12.06H17.36V16.488H7.27997V27H1.87997Z" fill="white" fill-opacity="0.98"/>
<path d="M33.9779 23.616H33.7619C33.3539 24.672 32.7059 25.572 31.8179 26.316C30.9539 27.06 29.7779 27.432 28.2899 27.432C27.4019 27.432 26.5859 27.288 25.8419 27C25.0979 26.688 24.4619 26.232 23.9339 25.632C23.4059 25.032 22.9859 24.3 22.6739 23.436C22.3859 22.572 22.2419 21.576 22.2419 20.448V8.42398H27.5699V19.728C27.5699 22.128 28.6139 23.328 30.7019 23.328C31.1099 23.328 31.5059 23.28 31.8899 23.184C32.2979 23.064 32.6459 22.896 32.9339 22.68C33.2459 22.44 33.4979 22.152 33.6899 21.816C33.8819 21.48 33.9779 21.084 33.9779 20.628V8.42398H39.3059V27H33.9779V23.616Z" fill="white" fill-opacity="0.98"/>
<path d="M52.6478 27.432C51.1838 27.432 49.8638 27.216 48.6878 26.784C47.5358 26.328 46.5518 25.68 45.7358 24.84C44.9438 24 44.3318 22.98 43.8998 21.78C43.4678 20.58 43.2518 19.224 43.2518 17.712C43.2518 16.2 43.4678 14.844 43.8998 13.644C44.3318 12.444 44.9438 11.424 45.7358 10.584C46.5518 9.74398 47.5358 9.10798 48.6878 8.67599C49.8638 8.21999 51.1718 7.99199 52.6118 7.99199C54.6518 7.99199 56.2838 8.41199 57.5078 9.25198C58.7558 10.068 59.7038 11.16 60.3518 12.528L56.2478 14.76C55.9118 14.04 55.4678 13.44 54.9158 12.96C54.3878 12.48 53.6198 12.24 52.6118 12.24C51.3878 12.24 50.4398 12.6 49.7678 13.32C49.1198 14.016 48.7958 14.976 48.7958 16.2V19.224C48.7958 20.448 49.1198 21.42 49.7678 22.14C50.4398 22.836 51.4118 23.184 52.6838 23.184C53.7158 23.184 54.5198 22.944 55.0958 22.464C55.6958 21.984 56.1998 21.36 56.6078 20.592L60.6398 22.896C59.9678 24.264 58.9838 25.368 57.6878 26.208C56.4158 27.024 54.7358 27.432 52.6478 27.432Z" fill="white" fill-opacity="0.98"/>
<path d="M64.4778 0.359985H69.8058V15.48H70.0578L72.5418 12.564L76.4298 8.42398H82.5498L75.3498 15.768L83.3058 27H76.9698L71.5698 18.792L69.8058 20.556V27H64.4778V0.359985Z" fill="white" fill-opacity="0.98"/>
<path d="M87.2637 27C86.6237 27 86.1477 26.832 85.8357 26.496C85.5237 26.16 85.3677 25.732 85.3677 25.212V22.188H83.6877V20.808H84.7797C85.0437 20.808 85.2317 20.756 85.3437 20.652C85.4557 20.548 85.5117 20.356 85.5117 20.076V18.624H87.1437V20.808H89.5557V22.188H87.1437V25.62H89.5557V27H87.2637Z" fill="white" fill-opacity="0.98"/>
<path d="M90.979 18.12H92.755V21.936H92.827C92.899 21.76 92.987 21.596 93.091 21.444C93.195 21.292 93.319 21.16 93.463 21.048C93.615 20.928 93.787 20.836 93.979 20.772C94.179 20.7 94.403 20.664 94.651 20.664C94.947 20.664 95.219 20.716 95.467 20.82C95.715 20.916 95.927 21.064 96.103 21.264C96.279 21.464 96.415 21.708 96.511 21.996C96.615 22.284 96.667 22.616 96.667 22.992V27H94.891V23.232C94.891 22.432 94.543 22.032 93.847 22.032C93.711 22.032 93.575 22.052 93.439 22.092C93.311 22.124 93.195 22.18 93.091 22.26C92.987 22.332 92.903 22.424 92.839 22.536C92.783 22.648 92.755 22.78 92.755 22.932V27H90.979V18.12Z" fill="white" fill-opacity="0.98"/>
<path d="M100.982 27.144C99.9423 27.144 99.1543 26.856 98.6183 26.28C98.0823 25.704 97.8143 24.92 97.8143 23.928C97.8143 23.424 97.8823 22.972 98.0183 22.572C98.1623 22.164 98.3623 21.82 98.6183 21.54C98.8823 21.252 99.1983 21.036 99.5663 20.892C99.9423 20.74 100.362 20.664 100.826 20.664C101.29 20.664 101.706 20.74 102.074 20.892C102.442 21.036 102.754 21.244 103.01 21.516C103.266 21.788 103.462 22.12 103.598 22.512C103.742 22.896 103.814 23.328 103.814 23.808V24.336H99.5783V24.444C99.5783 24.844 99.7023 25.168 99.9503 25.416C100.198 25.656 100.562 25.776 101.042 25.776C101.41 25.776 101.726 25.708 101.99 25.572C102.254 25.428 102.482 25.24 102.674 25.008L103.634 26.052C103.394 26.348 103.058 26.604 102.626 26.82C102.194 27.036 101.646 27.144 100.982 27.144ZM100.838 21.936C100.454 21.936 100.146 22.056 99.9143 22.296C99.6903 22.528 99.5783 22.844 99.5783 23.244V23.34H102.074V23.244C102.074 22.836 101.962 22.516 101.738 22.284C101.522 22.052 101.222 21.936 100.838 21.936Z" fill="white" fill-opacity="0.98"/>
<path d="M9.40397 65.432C7.29197 65.432 5.45597 65.084 3.89597 64.388C2.33597 63.692 1.07597 62.744 0.115967 61.544L3.24797 58.088C4.15997 59.096 5.15597 59.84 6.23597 60.32C7.33997 60.8 8.45597 61.04 9.58397 61.04C10.88 61.04 11.864 60.752 12.536 60.176C13.208 59.6 13.544 58.772 13.544 57.692C13.544 56.804 13.28 56.132 12.752 55.676C12.248 55.22 11.384 54.896 10.16 54.704L7.53197 54.272C5.27597 53.888 3.64397 53.06 2.63597 51.788C1.62797 50.492 1.12397 48.92 1.12397 47.072C1.12397 44.648 1.91597 42.776 3.49997 41.456C5.08397 40.112 7.30397 39.44 10.16 39.44C12.104 39.44 13.796 39.74 15.236 40.34C16.676 40.94 17.84 41.756 18.728 42.788L15.668 46.208C14.996 45.464 14.204 44.888 13.292 44.48C12.38 44.048 11.348 43.832 10.196 43.832C7.77197 43.832 6.55997 44.828 6.55997 46.82C6.55997 47.684 6.82397 48.332 7.35197 48.764C7.90397 49.196 8.79197 49.52 10.016 49.736L12.644 50.204C14.684 50.564 16.256 51.332 17.36 52.508C18.464 53.684 19.016 55.268 19.016 57.26C19.016 58.436 18.812 59.528 18.404 60.536C17.996 61.52 17.384 62.384 16.568 63.128C15.752 63.848 14.744 64.412 13.544 64.82C12.368 65.228 10.988 65.432 9.40397 65.432Z" fill="white" fill-opacity="0.98"/>
<path d="M33.9779 61.616H33.7619C33.3539 62.672 32.7059 63.572 31.8179 64.316C30.9539 65.06 29.7779 65.432 28.2899 65.432C27.4019 65.432 26.5859 65.288 25.8419 65C25.0979 64.688 24.4619 64.232 23.9339 63.632C23.4059 63.032 22.9859 62.3 22.6739 61.436C22.3859 60.572 22.2419 59.576 22.2419 58.448V46.424H27.5699V57.728C27.5699 60.128 28.6139 61.328 30.7019 61.328C31.1099 61.328 31.5059 61.28 31.8899 61.184C32.2979 61.064 32.6459 60.896 32.9339 60.68C33.2459 60.44 33.4979 60.152 33.6899 59.816C33.8819 59.48 33.9779 59.084 33.9779 58.628V46.424H39.3059V65H33.9779V61.616Z" fill="white" fill-opacity="0.98"/>
<path d="M53.0438 44.048C51.8438 44.048 51.0038 43.808 50.5238 43.328C50.0678 42.824 49.8398 42.224 49.8398 41.528V40.484C49.8398 39.764 50.0678 39.164 50.5238 38.684C51.0038 38.204 51.8438 37.964 53.0438 37.964C54.2438 37.964 55.0718 38.204 55.5278 38.684C56.0078 39.164 56.2478 39.764 56.2478 40.484V41.528C56.2478 42.224 56.0078 42.824 55.5278 43.328C55.0718 43.808 54.2438 44.048 53.0438 44.048ZM44.4758 60.86H50.3798V50.564H44.4758V46.424H55.7078V60.86H61.1798V65H44.4758V60.86Z" fill="white" fill-opacity="0.98"/>
<path d="M74.3778 65C72.4578 65 71.0298 64.496 70.0938 63.488C69.1578 62.48 68.6898 61.196 68.6898 59.636V50.564H63.6498V46.424H66.9258C67.7178 46.424 68.2818 46.268 68.6178 45.956C68.9538 45.644 69.1218 45.068 69.1218 44.228V39.872H74.0178V46.424H81.2538V50.564H74.0178V60.86H81.2538V65H74.3778Z" fill="white" fill-opacity="0.98"/>
<path d="M93.7677 65.432C91.7037 65.432 89.9037 65.12 88.3677 64.496C86.8557 63.872 85.7157 63.02 84.9477 61.94L87.9357 59.168C88.6557 59.96 89.4957 60.584 90.4557 61.04C91.4397 61.472 92.5557 61.688 93.8037 61.688C94.8597 61.688 95.6877 61.532 96.2877 61.22C96.8877 60.884 97.1877 60.38 97.1877 59.708C97.1877 59.18 96.9837 58.82 96.5757 58.628C96.1677 58.412 95.6037 58.244 94.8837 58.124L91.8957 57.656C91.0557 57.536 90.2757 57.356 89.5557 57.116C88.8357 56.852 88.2117 56.504 87.6837 56.072C87.1557 55.64 86.7357 55.112 86.4237 54.488C86.1117 53.864 85.9557 53.108 85.9557 52.22C85.9557 50.276 86.6997 48.752 88.1877 47.648C89.6757 46.544 91.7637 45.992 94.4517 45.992C96.2757 45.992 97.8237 46.244 99.0957 46.748C100.392 47.228 101.424 47.924 102.192 48.836L99.5277 51.86C98.9757 51.26 98.2677 50.756 97.4037 50.348C96.5397 49.94 95.4957 49.736 94.2717 49.736C92.2077 49.736 91.1757 50.36 91.1757 51.608C91.1757 52.16 91.3797 52.544 91.7877 52.76C92.1957 52.952 92.7597 53.108 93.4797 53.228L96.4317 53.696C97.2717 53.816 98.0517 54.008 98.7717 54.272C99.4917 54.512 100.116 54.848 100.644 55.28C101.196 55.712 101.628 56.24 101.94 56.864C102.252 57.488 102.408 58.244 102.408 59.132C102.408 61.076 101.652 62.612 100.14 63.74C98.6517 64.868 96.5277 65.432 93.7677 65.432Z" fill="white" fill-opacity="0.98"/>
</svg>
